{"asset":{"version":"2.0","generator":"THREE.GLTFExporter"},"scenes":[{"name":"AuxScene","nodes":[0]}],"scene":0,"nodes":[{"mesh":0}],"bufferViews":[{"buffer":0,"byteOffset":0,"byteLength":3708,"target":34962,"byteStride":12},{"buffer":0,"byteOffset":3708,"byteLength":3708,"target":34962,"byteStride":12}],"buffers":[{"byteLength":7416,"uri":"data:application/octet-stream;base64,"}],"accessors":[{"bufferView":0,"componentType":5126,"count":309,"max":[24.500003814697266,1.7000000476837158,24.500003814697266],"min":[-24.399999618530273,0.10000000149011612,-24.399999618530273],"type":"VEC3"},{"bufferView":1,"componentType":5126,"count":309,"max":[0,1,0],"min":[0,1,0],"type":"VEC3"}],"materials":[{"pbrMetallicRoughness":{"baseColorFactor":[0.5019607843137255,0.5019607843137255,0.5019607843137255,1],"metallicFactor":0,"roughnessFactor":1}}],"meshes":[{"primitives":[{"mode":4,"attributes":{"POSITION":0,"NORMAL":1},"material":0}]}]}